<?xml version="1.0" encoding="utf-8"?>
<!-- Generator: Adobe Illustrator 17.0.0, SVG Export Plug-In . SVG Version: 6.00 Build 0)  -->
<!DOCTYPE svg PUBLIC "-//W3C//DTD SVG 1.1//EN" "http://www.w3.org/Graphics/SVG/1.1/DTD/svg11.dtd">
<svg version="1.1" id="Слой_1" xmlns="http://www.w3.org/2000/svg" xmlns:xlink="http://www.w3.org/1999/xlink" x="0px" y="0px"
	 width="40.83px" height="32.81px" viewBox="0 0 40.83 32.81" enable-background="new 0 0 40.83 32.81" xml:space="preserve">
<g display="none">
	<path display="inline" fill="white" d="M30.856,29.915H9.959c-0.309,0-0.561,0.249-0.561,0.554c0,0.305,0.252,0.554,0.561,0.554
		h20.896c0.31,0,0.561-0.249,0.561-0.554C31.417,30.164,31.167,29.915,30.856,29.915z"/>
	<path display="inline" fill="white" d="M37.588,9.549c-0.197-0.146-0.465-0.148-0.662-0.008l-9.031,6.358
		c-0.21,0.147-0.29,0.416-0.197,0.653c0.087,0.217,0.129,0.439,0.129,0.657c0,0.994-0.817,1.802-1.823,1.802
		c-1.005,0-1.823-0.808-1.823-1.802c0-0.95,0.758-1.736,1.725-1.788c0.186-0.012,0.355-0.112,0.451-0.271
		c0.097-0.16,0.105-0.352,0.025-0.521l-5.47-11.399c-0.093-0.194-0.291-0.316-0.507-0.316c-0.217,0-0.414,0.122-0.507,0.316
		l-5.474,11.408c-0.078,0.162-0.071,0.354,0.02,0.512c0.092,0.16,0.256,0.261,0.439,0.277c0.947,0.082,1.659,0.851,1.659,1.782
		c0,0.994-0.818,1.802-1.823,1.802s-1.823-0.808-1.823-1.802c0-0.178,0.034-0.367,0.106-0.576c0.079-0.229-0.002-0.484-0.199-0.625
		L3.894,9.546C3.695,9.402,3.427,9.402,3.227,9.547C3.03,9.691,2.95,9.945,3.031,10.174l6.432,18.305
		c0.077,0.223,0.29,0.373,0.529,0.373h20.824c0.24,0,0.451-0.149,0.53-0.373l6.432-18.305C37.864,9.946,37.783,9.694,37.588,9.549z
		 M30.421,27.743H10.396L4.685,11.495l7.147,5.185c-0.036,0.179-0.055,0.355-0.055,0.531c0,1.604,1.321,2.91,2.945,2.91
		c1.623,0,2.945-1.306,2.945-2.91c0-1.251-0.789-2.315-1.927-2.722l4.668-9.725l4.653,9.7c-1.17,0.39-2.001,1.477-2.001,2.748
		c0,1.605,1.321,2.911,2.945,2.911c1.622,0,2.945-1.306,2.945-2.911c0-0.213-0.025-0.426-0.076-0.637l7.268-5.117L30.421,27.743z"/>
	<path display="inline" fill="white" d="M20.648,8.141c-0.28-0.129-0.614-0.012-0.747,0.263l-2.512,5.237
		c-0.105,0.216-0.055,0.478,0.123,0.641c0.821,0.762,1.277,1.799,1.277,2.928c0,0.306,0.251,0.554,0.561,0.554
		c0.309,0,0.561-0.249,0.561-0.554c0-1.298-0.472-2.507-1.341-3.443l2.345-4.885C21.047,8.603,20.929,8.272,20.648,8.141z"/>
</g>
<g display="none">
	<path display="inline" fill="white" d="M20.414,15.031c1.071,0,1.938,0.868,1.938,1.939c0,1.071-0.868,1.94-1.938,1.94
		c-1.07,0-1.938-0.868-1.938-1.94C18.476,15.899,19.344,15.031,20.414,15.031z"/>
	<path display="inline" fill="white" d="M34.305,11.217c-0.366,0-0.708,0.102-1,0.278c-1.131-0.446-2.739-0.672-4.669-0.672
		c-0.563,0-1.153,0.02-1.767,0.058c0.525-5.247-0.256-9.162-2.229-9.691c-0.151-0.04-0.305-0.06-0.463-0.06
		c-1.862,0-4.19,2.756-6.161,7.011c-2.703-1.889-5.165-3.055-6.94-3.263c-0.3-0.683-0.982-1.16-1.775-1.16
		c-1.071,0-1.938,0.868-1.938,1.939c0,0.705,0.376,1.322,0.939,1.662c0.102,1.824,1.331,4.48,3.396,7.406
		c-4.671,2.116-7.576,4.637-7.074,6.512c0.399,1.488,2.863,2.255,6.417,2.255c0.959,0,1.998-0.056,3.098-0.169
		c-0.166,2.76,0.064,5.059,0.669,6.554c-0.173,0.291-0.273,0.63-0.273,0.993c0,1.071,0.868,1.94,1.938,1.94
		c0.934,0,1.714-0.662,1.897-1.542c1.387-0.862,2.897-2.856,4.271-5.588c3.062,2.167,5.83,3.418,7.66,3.418
		c0.704,0,1.269-0.185,1.658-0.575c1.413-1.413,0.135-5.146-2.921-9.435c2.611-1.294,4.55-2.702,5.472-4.003
		c0.974-0.103,1.733-0.927,1.733-1.928C36.244,12.085,35.376,11.217,34.305,11.217z M16.14,18.154
		c0.183-0.898,0.398-1.811,0.644-2.73c0.124-0.464,0.255-0.922,0.391-1.375c0.557-0.171,1.124-0.335,1.699-0.489
		c0.978-0.262,1.956-0.491,2.918-0.685c0.464,0.43,0.925,0.875,1.383,1.332c0.538,0.538,1.057,1.081,1.556,1.627
		c-0.123,0.534-0.257,1.072-0.401,1.613c-0.225,0.841-0.471,1.666-0.735,2.469c-0.903,0.302-1.837,0.583-2.794,0.84
		c-0.553,0.148-1.106,0.286-1.656,0.413c-0.501-0.462-0.999-0.94-1.493-1.434C17.13,19.212,16.626,18.684,16.14,18.154z
		 M17.605,21.495c-0.693,0.135-1.377,0.251-2.048,0.348c0.074-0.685,0.171-1.39,0.29-2.109c0.29,0.305,0.588,0.61,0.891,0.914
		C17.027,20.937,17.316,21.219,17.605,21.495z M24.09,13.292c-0.239-0.24-0.479-0.475-0.72-0.706
		c0.689-0.113,1.366-0.206,2.025-0.279c-0.093,0.649-0.205,1.311-0.336,1.982C24.745,13.957,24.421,13.624,24.09,13.292z
		 M25.579,17.781c0.069-0.256,0.135-0.512,0.198-0.766c0.449,0.525,0.876,1.05,1.281,1.571c-0.62,0.272-1.267,0.535-1.936,0.786
		C25.282,18.853,25.434,18.322,25.579,17.781z M20.723,5.806c0.708-1.139,1.435-2.055,2.103-2.649
		c0.746-0.664,1.193-0.735,1.351-0.735c0.046,0,0.088,0.005,0.129,0.016c0.262,0.07,0.545,0.426,0.778,0.977
		c0.33,0.78,0.544,1.909,0.621,3.265c0.074,1.3,0.023,2.756-0.143,4.309c-1.074,0.109-2.206,0.273-3.377,0.492
		c-1.044-0.942-2.085-1.801-3.102-2.566C19.601,7.773,20.152,6.726,20.723,5.806z M18.556,10.136
		c0.679,0.519,1.363,1.078,2.045,1.669c-0.677,0.151-1.365,0.319-2.06,0.506c-0.299,0.08-0.595,0.163-0.889,0.247
		C17.935,11.721,18.238,10.911,18.556,10.136z M10.8,10.808c-0.729-1.41-1.067-2.488-1.173-3.24
		c0.737-0.125,1.333-0.666,1.537-1.373c1.192,0.202,2.838,0.92,4.647,2.038c0.55,0.34,1.11,0.713,1.674,1.113
		c-0.48,1.142-0.932,2.373-1.343,3.672c-1.136,0.367-2.218,0.765-3.231,1.182C12.07,13.031,11.358,11.889,10.8,10.808z
		 M14.244,22.011c-1.129,0.124-2.206,0.188-3.203,0.188c-1.638,0-3.013-0.173-3.975-0.501c-0.795-0.27-1.137-0.589-1.193-0.797
		c-0.061-0.227,0.111-0.629,0.46-1.075c0.514-0.659,1.388-1.392,2.527-2.123c1.043-0.669,2.265-1.314,3.618-1.914
		c0.686,0.904,1.445,1.826,2.27,2.752C14.521,19.744,14.354,20.907,14.244,22.011z M15.077,16.954
		c-0.482-0.563-0.94-1.125-1.371-1.684c0.639-0.257,1.302-0.503,1.984-0.739c-0.052,0.185-0.103,0.37-0.153,0.557
		C15.369,15.717,15.216,16.34,15.077,16.954z M20.392,27.064c-0.708,1.139-1.435,2.055-2.103,2.649
		c-0.057,0.051-0.112,0.097-0.165,0.141c-0.341-0.554-0.953-0.923-1.651-0.923c-0.209,0-0.411,0.033-0.6,0.095
		c-0.24-0.743-0.399-1.71-0.463-2.835c-0.053-0.935-0.042-1.95,0.03-3.024c1.07-0.147,2.186-0.344,3.332-0.591
		c0.945,0.847,1.888,1.625,2.811,2.327C21.2,25.681,20.801,26.406,20.392,27.064z M22.145,23.706
		c-0.607-0.468-1.217-0.966-1.825-1.491c0.271-0.068,0.543-0.138,0.816-0.211c0.656-0.176,1.299-0.362,1.926-0.558
		C22.772,22.23,22.465,22.986,22.145,23.706z M30.029,23.132c1.373,2.657,1.36,4.133,1.016,4.476
		c-0.17,0.17-0.539,0.196-0.744,0.196c-1.2,0-3.125-0.764-5.283-2.097c-0.596-0.368-1.201-0.773-1.812-1.211
		c0.499-1.099,0.974-2.295,1.412-3.566c1.147-0.402,2.231-0.833,3.235-1.284C28.721,20.849,29.456,22.024,30.029,23.132z
		 M30.817,16.611c-0.763,0.49-1.622,0.966-2.557,1.421c-0.646-0.844-1.355-1.705-2.122-2.567c0.242-1.126,0.434-2.224,0.577-3.278
		c0.666-0.047,1.309-0.071,1.921-0.071c1.554,0,2.87,0.156,3.822,0.451c-0.059,0.186-0.091,0.384-0.091,0.589
		c0,0.64,0.31,1.207,0.787,1.56C32.627,15.314,31.826,15.964,30.817,16.611z"/>
</g>
<g display="none">
	<path display="inline" fill="white" d="M20.448,28.801l14.429-17.664l-4.49-6.276H10.509l-4.491,6.276L20.448,28.801
		L20.448,28.801z M35.86,11.461L20.826,29.866c-0.021,0.027-0.045,0.051-0.074,0.073c-0.207,0.168-0.512,0.136-0.68-0.07
		L5.035,11.461c-0.133-0.164-0.148-0.403-0.019-0.584l4.829-6.751c0.086-0.14,0.24-0.235,0.416-0.235h20.374v0.002
		c0.152,0.001,0.3,0.071,0.394,0.203l4.844,6.772L35.86,11.461z"/>
	<path display="inline" fill="white" d="M23.843,10.672c0.268,0,0.485,0.217,0.485,0.484c0,0.267-0.217,0.484-0.485,0.484H5.41
		c-0.268,0-0.485-0.217-0.485-0.484c0-0.267,0.217-0.484,0.485-0.484H23.843z"/>
	<path display="inline" fill="white" d="M35.402,10.672c0.268,0,0.485,0.217,0.485,0.484c0,0.267-0.217,0.484-0.485,0.484h-1.857
		c-0.268,0-0.485-0.217-0.485-0.484c0-0.267,0.217-0.484,0.485-0.484H35.402z"/>
	<path display="inline" fill="white" d="M9.812,4.555c-0.099-0.247,0.022-0.529,0.27-0.628c0.248-0.099,0.53,0.022,0.629,0.268
		l10.186,25.188c0.099,0.247-0.022,0.529-0.269,0.628c-0.247,0.099-0.53-0.021-0.629-0.268L9.812,4.555z"/>
	<path display="inline" fill="white" d="M25.68,15.337c0.099-0.247,0.382-0.368,0.629-0.269c0.248,0.099,0.369,0.381,0.269,0.629
		l-5.68,14.048c-0.099,0.248-0.382,0.368-0.629,0.269c-0.248-0.099-0.369-0.381-0.27-0.628L25.68,15.337z"/>
	<path display="inline" fill="white" d="M30.185,4.196c0.099-0.247,0.382-0.367,0.63-0.268c0.248,0.099,0.369,0.381,0.269,0.629
		L30.3,6.494c-0.099,0.247-0.382,0.368-0.629,0.268c-0.247-0.099-0.369-0.381-0.269-0.628L30.185,4.196z"/>
	<path display="inline" fill="white" d="M13.502,11.51c-0.196,0.182-0.502,0.171-0.684-0.024
		c-0.182-0.195-0.171-0.501,0.025-0.682l7.277-6.781c0.195-0.182,0.502-0.17,0.683,0.024c0.182,0.195,0.171,0.502-0.024,0.682
		L13.502,11.51z"/>
	<path display="inline" fill="white" d="M25.626,8.541c0.195,0.182,0.206,0.488,0.024,0.682c-0.182,0.195-0.488,0.206-0.683,0.024
		l-4.849-4.519c-0.195-0.182-0.206-0.487-0.024-0.682c0.182-0.194,0.488-0.206,0.683-0.024L25.626,8.541z"/>
	<path display="inline" fill="white" d="M29.127,8.034l0.903,1.79l1.793,0.902c0.238,0.119,0.333,0.411,0.214,0.649
		c-0.048,0.096-0.125,0.168-0.214,0.214L30.03,12.49l-0.903,1.79c-0.119,0.238-0.411,0.334-0.65,0.214
		c-0.096-0.048-0.169-0.125-0.214-0.214l-0.902-1.79l-1.793-0.902c-0.238-0.12-0.333-0.411-0.214-0.649
		c0.049-0.096,0.125-0.168,0.214-0.214l1.793-0.902l0.902-1.79c0.12-0.238,0.411-0.333,0.65-0.214
		C29.009,7.867,29.081,7.944,29.127,8.034L29.127,8.034z M29.238,10.401l-0.543-1.076l-0.543,1.076
		c-0.045,0.089-0.118,0.166-0.214,0.214l-1.078,0.542l1.078,0.543c0.089,0.045,0.166,0.118,0.214,0.214l0.543,1.077l0.543-1.077
		c0.045-0.089,0.118-0.165,0.214-0.214l1.078-0.543l-1.078-0.542C29.363,10.569,29.286,10.497,29.238,10.401z"/>
</g>
<g display="none">
	<path display="inline" fill="white" d="M18.128,15.975c0.168-0.265,0.058-1.129,0.058-1.129
		C11.873,12.65,7.151,9.897,7.418,8.779c0.132-0.553,0.314-0.795,0.44-0.838C8.141,7.848,8.78,8.186,9.562,8.706l1.3-1.542
		c-0.615-0.381-2.132-1.641-3.621-1.151C6.633,6.212,5.832,6.771,5.467,8.305c-0.856,3.592,7.629,6.834,12.181,8.429
		C17.648,16.734,17.96,16.24,18.128,15.975z"/>
	<path display="inline" fill="white" d="M32.898,9.013c-0.208-0.296-0.426-0.586-0.656-0.865
		c-2.509-3.039-6.283-4.977-10.499-4.977c-0.008,0-0.013,0.001-0.02,0.001c-0.005,0-0.009-0.001-0.013-0.001
		c-0.016,0-0.031,0.002-0.047,0.002C17.48,3.198,13.738,5.13,11.246,8.15c-0.23,0.279-0.448,0.567-0.655,0.864
		c-0.158,0.226-0.305,0.46-0.45,0.695c0.286,0.182,0.609,0.376,0.969,0.58c0.124-0.2,0.248-0.402,0.384-0.595
		c0.85,0.573,1.832,1.073,2.918,1.486c-0.06,0.219-0.106,0.451-0.159,0.675c0.332,0.147,0.682,0.294,1.039,0.441
		c0.056-0.253,0.107-0.509,0.171-0.754c1.726,0.534,3.665,0.855,5.722,0.905v1.439l0.07,0.045l0.097,0.591l0.151,0.906l0.802,0.21
		v-3.191c0.398-0.009,0.787-0.038,1.174-0.067l0.294-0.84l0.113-0.324c-0.518,0.05-1.043,0.086-1.581,0.099V4.353
		c2.276,0.355,4.236,2.735,5.35,6.142c-0.539,0.161-1.109,0.292-1.691,0.408c0.381,0.193,0.759,0.492,1.028,0.916
		c0.328-0.082,0.659-0.164,0.976-0.26c0.418,1.61,0.661,3.399,0.671,5.293H26.9c-0.018,0.115-0.036,0.223-0.056,0.344
		c0.68,0.282,1.49,0.618,1.665,0.691c0.519,0.216,0.907,0.542,1.167,0.94c0.022-0.28,0.046-0.558,0.059-0.843h2.69
		c-0.047,0.35-0.091,0.703-0.153,1.041c0.17-0.088,0.319-0.26,0.397-0.586c0.042-0.176,0.047-0.323,0.037-0.455h1.537
		c-0.183,2.319-0.991,4.46-2.249,6.26c-0.865-0.583-1.866-1.092-2.978-1.51c0.061-0.224,0.111-0.456,0.164-0.687
		c-0.356,0.282-0.802,0.439-1.306,0.439c-0.221,0-0.407-0.028-0.531-0.046l-0.038-0.007c-0.134-0.009-0.322-0.026-1.459-0.419
		c0.135-0.182,0.293-0.421,0.468-0.699V20.75c0.528,0.183,0.978,0.331,1.084,0.339c0.292,0.02,1.042,0.279,1.258-0.622
		c0.216-0.902-0.345-1.2-0.658-1.33c-0.176-0.073-0.999-0.415-1.684-0.699v-1.146l-0.391,0.983c-0.34-0.141-0.584-0.242-0.584-0.242
		s0.846-4.714,0.615-5.311c-0.231-0.597-0.925-0.733-0.925-0.733l-1.844,5.274l-2.005-0.524l0,0l-0.858-0.224l-0.293-1.771
		l-0.935-0.604c-0.001,0,0.055,1.46-0.083,2.247c-0.026,0.148-0.059,0.273-0.101,0.359c-0.015,0.032-0.043,0.073-0.066,0.109
		c-0.098,0.164-0.251,0.359-0.42,0.556c-0.001,0.002-0.002,0.002-0.003,0.003c-0.08,0.093-0.165,0.186-0.248,0.276
		c-0.01,0.01-0.018,0.021-0.027,0.03c-0.08,0.085-0.158,0.168-0.233,0.244c-0.255,0.262-0.459,0.456-0.459,0.456l0.818,0.611
		l1.361-1.048h0.001l0.308-0.238l0.489,0.238l0,0l1.239,0.601l0.631,0.307l0,0l0.141,0.069l-2.055,5.174c0,0,0.674,0.611,1.18,0.217
		c0.508-0.394,2.669-4.353,2.669-4.353s0.379,0.14,0.874,0.321l-0.115,0.29c0.067-0.002,0.131-0.01,0.198-0.012v1.187
		c-0.05-0.017-0.096-0.034-0.148-0.053c-0.072-0.01-0.148-0.017-0.219-0.028c-0.221,0.394-0.423,0.747-0.605,1.059
		c1.215,0.137,2.372,0.362,3.434,0.679c-1.115,3.408-3.077,5.786-5.353,6.141v-4.109c-0.33,0.231-0.714,0.358-1.121,0.359v3.758
		c-2.3-0.318-4.286-2.702-5.412-6.132c1.147-0.348,2.407-0.593,3.734-0.727l0.466-1.172c-1.607,0.125-3.131,0.407-4.514,0.836
		c-0.354-1.356-0.58-2.845-0.649-4.414h1.157l0.294-0.279c-0.915-0.316-1.778-0.634-2.591-0.954c-0.001,0.033-0.003,0.066-0.003,0.1
		H9.201c0.006-0.701,0.073-1.388,0.189-2.058c-0.36-0.196-0.703-0.391-1.027-0.589C8.182,15.1,8.076,16.021,8.076,16.97
		c0,2.962,0.933,5.706,2.511,7.956c0.208,0.296,0.426,0.586,0.655,0.864c2.493,3.019,6.235,4.951,10.418,4.975
		c0.016,0,0.031,0.003,0.047,0.003c0.004,0,0.008-0.001,0.012-0.001c0.007,0,0.014,0.001,0.02,0.001
		c4.216,0,7.99-1.938,10.499-4.977c0.23-0.28,0.448-0.568,0.655-0.865c1.579-2.25,2.511-4.994,2.511-7.956
		C35.408,14.008,34.476,11.264,32.898,9.013z M14.729,10.124c-0.964-0.363-1.831-0.801-2.578-1.296
		c1.466-1.758,3.395-3.112,5.598-3.861C16.493,6.189,15.449,7.978,14.729,10.124z M21.182,11.314
		c-1.951-0.048-3.788-0.345-5.41-0.836c1.126-3.43,3.109-5.815,5.41-6.134V11.314z M9.243,17.986h4.442
		c0.073,1.695,0.327,3.304,0.726,4.774c-1.087,0.413-2.069,0.914-2.918,1.486C10.235,22.446,9.426,20.304,9.243,17.986z
		 M12.154,25.109c0.747-0.494,1.613-0.931,2.574-1.294c0.72,2.147,1.765,3.934,3.021,5.156
		C15.545,28.223,13.621,26.867,12.154,25.109z M25.636,29.007c1.276-1.229,2.337-3.036,3.063-5.212
		c0.985,0.368,1.871,0.811,2.633,1.315C29.843,26.894,27.883,28.265,25.636,29.007z M25.636,4.932
		c2.245,0.743,4.208,2.112,5.697,3.897c-0.655,0.433-1.406,0.818-2.226,1.152c-0.038-0.011-0.065-0.017-0.065-0.017l-0.018,0.05
		c-0.108,0.044-0.215,0.09-0.328,0.132C27.971,7.97,26.912,6.16,25.636,4.932z M29.757,16.853c-0.009-2.016-0.276-3.928-0.74-5.65
		c1.109-0.417,2.112-0.926,2.976-1.508c1.417,2.031,2.267,4.495,2.291,7.159L29.757,16.853L29.757,16.853z"/>
</g>
<g id="Выслать" display="none">
	<path display="inline" d="M25.646,17.884l-1.979-1.957c-0.088-0.088-0.192-0.109-0.312-0.062c-0.119,0.046-0.177,0.134-0.177,0.262
		v0.996c-0.711,0.124-1.406,0.388-1.89,0.667c-0.476,0.275-0.935,0.638-1.205,0.91c-0.27,0.273-0.503,0.581-0.587,0.709
		c-0.041,0.063-0.069,0.108-0.083,0.134c-0.069,0.127-0.056,0.251,0.052,0.349c0.095,0.087,0.244,0.097,0.348,0.031
		c0.021-0.021,0.202-0.129,0.613-0.308c0.202-0.089,0.427-0.173,0.67-0.252c0.245-0.08,0.541-0.152,0.878-0.21
		c0.343-0.06,0.68-0.093,1.013-0.093h0.192v0.971c0,0.119,0.057,0.206,0.177,0.262c0.042,0.016,0.078,0.021,0.109,0.021
		c0.078,0,0.145-0.026,0.203-0.082l1.979-1.947C25.755,18.177,25.755,17.991,25.646,17.884z M23.75,19.348v-0.55
		c0-0.149-0.114-0.277-0.265-0.283c-0.109-0.015-0.275-0.02-0.499-0.02c-0.743,0-1.491,0.123-2.233,0.375
		c0.805-0.673,1.719-1.077,2.753-1.217c0.141-0.019,0.244-0.134,0.244-0.283v-0.56l1.278,1.274L23.75,19.348z"/>
	<path display="inline" d="M15.679,19.692v-5.701l4.01,4.052c0.056,0.057,0.125,0.082,0.202,0.082h0.01
		c0.088,0,0.156-0.025,0.213-0.082l3.999-4.052v1.504h0.571v-2.368c0-0.349-0.27-0.631-0.623-0.631h-8.331
		c-0.177,0-0.327,0.062-0.447,0.184c-0.12,0.124-0.182,0.273-0.182,0.447v6.565c0,0.17,0.061,0.32,0.182,0.441
		c0.118,0.119,0.27,0.18,0.447,0.18h3.054v-0.57h-3.054C15.694,19.744,15.679,19.728,15.679,19.692z M15.679,13.127
		c0-0.041,0.016-0.061,0.052-0.061h8.331c0.036,0,0.052,0.021,0.052,0.061v0.052l-4.212,4.264l-4.223-4.264V13.127z"/>
</g>
<path id="Телефон" display="none" d="M23.661,18.444l-1.387-1.385c-0.276-0.274-0.734-0.266-1.02,0.019l-0.699,0.698
	c-0.044-0.024-0.09-0.05-0.138-0.077c-0.441-0.244-1.045-0.579-1.681-1.213c-0.637-0.636-0.973-1.24-1.218-1.681
	c-0.026-0.047-0.051-0.092-0.075-0.134l0.469-0.468l0.231-0.23c0.286-0.286,0.294-0.743,0.019-1.018l-1.387-1.385
	c-0.276-0.275-0.733-0.267-1.02,0.019l-0.391,0.393l0.011,0.01c-0.131,0.167-0.241,0.36-0.322,0.567
	c-0.075,0.198-0.122,0.387-0.143,0.575c-0.183,1.516,0.511,2.901,2.394,4.781c2.603,2.599,4.702,2.402,4.792,2.393
	c0.197-0.023,0.386-0.071,0.578-0.145c0.206-0.08,0.399-0.19,0.566-0.32l0.009,0.007l0.396-0.387
	C23.928,19.177,23.936,18.72,23.661,18.444z M23.334,19.155l-0.175,0.174l-0.069,0.067c-0.11,0.106-0.299,0.254-0.576,0.362
	c-0.157,0.06-0.312,0.099-0.469,0.118c-0.02,0.002-1.993,0.17-4.436-2.268c-2.077-2.073-2.41-3.267-2.27-4.424
	c0.017-0.154,0.056-0.308,0.118-0.469c0.109-0.278,0.258-0.467,0.363-0.576l0.241-0.243c0.116-0.117,0.298-0.125,0.404-0.019
	l1.387,1.384c0.106,0.106,0.098,0.288-0.019,0.404l-0.937,0.934l0.086,0.145c0.048,0.081,0.099,0.172,0.153,0.27
	c0.258,0.464,0.61,1.099,1.291,1.778c0.679,0.678,1.314,1.03,1.778,1.286c0.1,0.056,0.192,0.106,0.274,0.155l0.146,0.086
	l0.936-0.935c0.117-0.116,0.299-0.125,0.405-0.019l1.387,1.385C23.459,18.857,23.451,19.038,23.334,19.155z"/>
<g id="Заказ">
	<path d="M14.004,11.584h1.349l1.922,6.934c0.055,0.203,0.243,0.344,0.455,0.344h5.906c0.188,0,0.353-0.11,0.431-0.282l2.149-4.93
		c0.063-0.149,0.047-0.313-0.039-0.446c-0.086-0.133-0.235-0.211-0.392-0.211h-6.525c-0.259,0-0.471,0.211-0.471,0.47
		c0,0.258,0.212,0.47,0.471,0.47h5.804l-1.741,3.991h-5.239l-1.921-6.934c-0.055-0.204-0.243-0.345-0.455-0.345h-1.702
		c-0.259,0-0.471,0.211-0.471,0.469C13.534,11.373,13.745,11.584,14.004,11.584z"/>
	<path d="M17.282,22.165c0.588,0,1.067-0.477,1.067-1.064c0-0.587-0.478-1.064-1.067-1.064s-1.067,0.477-1.067,1.064
		C16.216,21.687,16.694,22.165,17.282,22.165z"/>
	<path d="M23.949,22.165c0.024,0,0.055,0,0.078,0c0.282-0.024,0.541-0.148,0.729-0.368c0.188-0.211,0.274-0.485,0.259-0.774
		c-0.039-0.579-0.549-1.025-1.137-0.986c-0.588,0.039-1.027,0.556-0.988,1.135C22.929,21.726,23.392,22.165,23.949,22.165z"/>
</g>
<g id="дата" display="none">
	<path display="inline" d="M22.571,12.721h-1.04v-0.48c0-0.133-0.107-0.24-0.24-0.24c-0.133,0-0.24,0.107-0.24,0.24v0.48h-1.44
		v-0.48c0-0.133-0.108-0.24-0.24-0.24c-0.132,0-0.24,0.107-0.24,0.24v0.48h-1.44v-0.48c0-0.133-0.108-0.24-0.24-0.24
		s-0.24,0.107-0.24,0.24v0.48h-1.04c-0.354,0-0.64,0.286-0.64,0.64v5.68c0,0.353,0.286,0.64,0.64,0.64h6.4
		c0.353,0,0.64-0.287,0.64-0.64v-5.68C23.211,13.007,22.924,12.721,22.571,12.721z M22.731,19.041c0,0.088-0.072,0.16-0.16,0.16
		h-6.4c-0.088,0-0.16-0.072-0.16-0.16v-5.68c0-0.088,0.072-0.16,0.16-0.16h1.04v0.48c0,0.133,0.108,0.24,0.24,0.24
		s0.24-0.107,0.24-0.24v-0.48h1.44v0.48c0,0.133,0.108,0.24,0.24,0.24c0.132,0,0.24-0.107,0.24-0.24v-0.48h1.44v0.48
		c0,0.133,0.107,0.24,0.24,0.24c0.133,0,0.24-0.107,0.24-0.24v-0.48h1.04c0.088,0,0.16,0.072,0.16,0.16V19.041z"/>
	<path display="inline" d="M17.211,14.881h0.96v0.72h-0.96V14.881z"/>
	<path display="inline" d="M17.211,16.081h0.96v0.72h-0.96V16.081z"/>
	<path display="inline" d="M17.211,17.281h0.96v0.72h-0.96V17.281z"/>
	<path display="inline" d="M18.891,17.281h0.96v0.72h-0.96V17.281z"/>
	<path display="inline" d="M18.891,16.081h0.96v0.72h-0.96V16.081z"/>
	<path display="inline" d="M18.891,14.881h0.96v0.72h-0.96V14.881z"/>
	<path display="inline" d="M20.571,17.281h0.96v0.72h-0.96V17.281z"/>
	<path display="inline" d="M20.571,16.081h0.96v0.72h-0.96V16.081z"/>
	<path display="inline" d="M20.571,14.881h0.96v0.72h-0.96V14.881z"/>
</g>
<path id="Имя" display="none" d="M19.799,16.438c-1.017,0-1.84-0.973-1.84-2.173s0.824-2.089,1.84-2.089
	c1.017,0,1.841,0.889,1.841,2.089S20.815,16.438,19.799,16.438z M16.936,19.375c0,0-0.39,0.026-0.562-0.208
	c-0.093-0.126-0.028-0.382,0.035-0.524l0.156-0.35c0,0,0.43-0.949,0.92-1.498c0.301-0.337,0.659-0.26,0.89-0.15
	c0.143,0.067,0.304,0.264,0.421,0.368c0.162,0.144,0.449,0.307,0.917,0.316h0.287c0.468-0.009,0.755-0.172,0.917-0.316
	c0.118-0.104,0.274-0.307,0.416-0.376c0.213-0.105,0.536-0.169,0.829,0.159c0.49,0.55,0.878,1.516,0.878,1.516l0.16,0.343
	c0.066,0.141,0.133,0.396,0.043,0.524c-0.161,0.228-0.523,0.198-0.523,0.198H16.936z"/>
<path display="none" d="M17.51,15.679l2.091-4.83c0.179-0.414,0.607-0.674,1.047-0.627c0.448,0.04,0.822,0.363,0.922,0.804
	l1.539,6.541l1.992-3.281c0.188-0.312,0.526-0.502,0.89-0.502h3.778c0.572,0,1.043,0.468,1.043,1.048
	c0,0.579-0.47,1.049-1.043,1.049h-3.194l-3,4.955c-0.19,0.313-0.528,0.504-0.887,0.504c-0.057,0-0.111-0.004-0.163-0.014
	c-0.42-0.067-0.751-0.379-0.851-0.792l-1.406-5.958l-1.112,2.571c-0.166,0.387-0.542,0.631-0.957,0.631H6.035
	c-0.571,0-1.043-0.469-1.043-1.047s0.471-1.048,1.043-1.048h3.058"/>
</svg>
